<?xml version="1.0" encoding="UTF-8"?>
<!DOCTYPE svg PUBLIC "-//W3C//DTD SVG 1.1//EN" "http://www.w3.org/Graphics/SVG/1.1/DTD/svg11.dtd">
<svg xmlns="http://www.w3.org/2000/svg" version="1.1" width="60px" height="60px" style="shape-rendering:geometricPrecision; text-rendering:geometricPrecision; image-rendering:optimizeQuality; fill-rule:evenodd; clip-rule:evenodd" xmlns:xlink="http://www.w3.org/1999/xlink">
<g><path style="opacity:1" fill="#121621" d="M -0.5,-0.5 C 19.5,-0.5 39.5,-0.5 59.5,-0.5C 59.5,19.5 59.5,39.5 59.5,59.5C 39.5,59.5 19.5,59.5 -0.5,59.5C -0.5,39.5 -0.5,19.5 -0.5,-0.5 Z"/></g>
<g><path style="opacity:1" fill="#fcfcfc" d="M 28.5,5.5 C 36.0154,8.8426 43.182,12.8426 50,17.5C 50.6667,25.5 50.6667,33.5 50,41.5C 43.4131,45.8784 36.5797,49.8784 29.5,53.5C 25.4141,51.04 21.2475,48.7066 17,46.5C 16.1683,38.1467 16.3349,29.8134 17.5,21.5C 21.2779,19.0553 25.2779,17.0553 29.5,15.5C 33.7221,17.0553 37.7221,19.0553 41.5,21.5C 42.8333,26.8333 42.8333,32.1667 41.5,37.5C 37.5,39.8333 33.5,42.1667 29.5,44.5C 28.086,43.376 26.586,42.376 25,41.5C 24.3333,36.5 24.3333,31.5 25,26.5C 27.7065,24.1145 30.5398,23.9478 33.5,26C 28.6816,29.2153 27.3483,33.7153 29.5,39.5C 32.5802,38.2115 35.4136,36.5448 38,34.5C 38.6667,31.1667 38.6667,27.8333 38,24.5C 35.4136,22.4552 32.5802,20.7885 29.5,19.5C 26.4198,20.7885 23.5864,22.4552 21,24.5C 20.1691,31.1915 20.3358,37.8582 21.5,44.5C 24.2029,45.8515 26.8696,47.1848 29.5,48.5C 35.2031,45.898 40.7031,42.898 46,39.5C 46.8309,32.8085 46.6642,26.1418 45.5,19.5C 40.2353,16.6194 35.0687,13.6194 30,10.5C 24.3834,13.2825 18.8834,16.2825 13.5,19.5C 12.8333,27.5 12.1667,35.5 11.5,43.5C 10.5224,43.0233 9.68909,42.3567 9,41.5C 8.33333,33.5 8.33333,25.5 9,17.5C 15.672,13.6368 22.172,9.63682 28.5,5.5 Z"/></g>
</svg>
