<?xml version="1.0" encoding="UTF-8"?>
<!DOCTYPE svg PUBLIC "-//W3C//DTD SVG 1.1//EN" "http://www.w3.org/Graphics/SVG/1.1/DTD/svg11.dtd">
<svg xmlns="http://www.w3.org/2000/svg" version="1.1" width="60px" height="60px" style="shape-rendering:geometricPrecision; text-rendering:geometricPrecision; image-rendering:optimizeQuality; fill-rule:evenodd; clip-rule:evenodd" xmlns:xlink="http://www.w3.org/1999/xlink">
<g><path style="opacity:0.958" fill="#000000" d="M 28.5,5.5 C 36.0158,8.84201 43.1824,12.842 50,17.5C 50.8317,25.8533 50.6651,34.1866 49.5,42.5C 42.8333,46.1667 36.1667,49.8333 29.5,53.5C 25.0909,51.5468 20.9242,49.2134 17,46.5C 16.1683,38.1467 16.3349,29.8134 17.5,21.5C 21.5,19.1667 25.5,16.8333 29.5,14.5C 33.5,16.8333 37.5,19.1667 41.5,21.5C 42.8333,26.8333 42.8333,32.1667 41.5,37.5C 27.0017,48.483 21.5017,44.8163 25,26.5C 27.7065,24.1145 30.5398,23.9478 33.5,26C 31.9095,27.0458 30.4095,28.2125 29,29.5C 28.1764,32.8823 28.343,36.2156 29.5,39.5C 32.5802,38.2115 35.4136,36.5448 38,34.5C 38.6667,31.1667 38.6667,27.8333 38,24.5C 35.0844,22.9594 32.2511,21.2927 29.5,19.5C 26.7489,21.2927 23.9156,22.9594 21,24.5C 20.3333,30.8333 20.3333,37.1667 21,43.5C 23.5864,45.5448 26.4198,47.2115 29.5,48.5C 34.8333,45.5 40.1667,42.5 45.5,39.5C 46.8333,32.8333 46.8333,26.1667 45.5,19.5C 40.1667,16.5 34.8333,13.5 29.5,10.5C 24.1667,13.5 18.8333,16.5 13.5,19.5C 12.8333,27.5 12.1667,35.5 11.5,43.5C 10.8333,43.1667 10.1667,42.8333 9.5,42.5C 8.33493,34.1866 8.16826,25.8533 9,17.5C 15.4803,13.3493 21.9803,9.3493 28.5,5.5 Z"/></g>
</svg>
