<?xml version="1.0" encoding="UTF-8"?>
<!DOCTYPE svg PUBLIC "-//W3C//DTD SVG 1.1//EN" "http://www.w3.org/Graphics/SVG/1.1/DTD/svg11.dtd">
<svg xmlns="http://www.w3.org/2000/svg" version="1.1" width="230px" height="60px" style="shape-rendering:geometricPrecision; text-rendering:geometricPrecision; image-rendering:optimizeQuality; fill-rule:evenodd; clip-rule:evenodd" xmlns:xlink="http://www.w3.org/1999/xlink">
<g><path style="opacity:0.958" fill="#000000" d="M 28.5,5.5 C 36.0158,8.84201 43.1824,12.842 50,17.5C 50.8317,25.8533 50.6651,34.1866 49.5,42.5C 42.8333,46.1667 36.1667,49.8333 29.5,53.5C 25.0909,51.5468 20.9242,49.2134 17,46.5C 16.1683,38.1467 16.3349,29.8134 17.5,21.5C 21.5,19.1667 25.5,16.8333 29.5,14.5C 33.5,16.8333 37.5,19.1667 41.5,21.5C 42.8333,26.8333 42.8333,32.1667 41.5,37.5C 27.0017,48.483 21.5017,44.8163 25,26.5C 27.7065,24.1145 30.5398,23.9478 33.5,26C 31.9095,27.0458 30.4095,28.2125 29,29.5C 28.1764,32.8823 28.343,36.2156 29.5,39.5C 32.5802,38.2115 35.4136,36.5448 38,34.5C 38.6667,31.1667 38.6667,27.8333 38,24.5C 35.0844,22.9594 32.2511,21.2927 29.5,19.5C 26.7489,21.2927 23.9156,22.9594 21,24.5C 20.3333,30.8333 20.3333,37.1667 21,43.5C 23.5864,45.5448 26.4198,47.2115 29.5,48.5C 34.8333,45.5 40.1667,42.5 45.5,39.5C 46.8333,32.8333 46.8333,26.1667 45.5,19.5C 40.1667,16.5 34.8333,13.5 29.5,10.5C 24.1667,13.5 18.8333,16.5 13.5,19.5C 12.8333,27.5 12.1667,35.5 11.5,43.5C 10.8333,43.1667 10.1667,42.8333 9.5,42.5C 8.33493,34.1866 8.16826,25.8533 9,17.5C 15.4803,13.3493 21.9803,9.3493 28.5,5.5 Z"/></g>
<g><path style="opacity:0.69" fill="#000000" d="M 72.5,13.5 C 77.2137,13.1734 81.8804,13.5067 86.5,14.5C 84.5643,17.208 84.0643,20.208 85,23.5C 86.7932,20.7047 88.9598,18.2047 91.5,16C 91.0426,15.586 90.7093,15.086 90.5,14.5C 94.1667,13.1667 97.8333,13.1667 101.5,14.5C 98.0433,18.4584 94.3767,22.2917 90.5,26C 91.5786,26.956 92.7453,27.7894 94,28.5C 96.1843,34.3695 99.0177,39.8695 102.5,45C 98.1794,45.499 93.8461,45.6657 89.5,45.5C 88.2981,41.422 86.7981,37.422 85,33.5C 84.0105,37.444 84.5105,41.1106 86.5,44.5C 81.8804,45.4933 77.2137,45.8266 72.5,45.5C 75.1667,34.8333 75.1667,24.1667 72.5,13.5 Z"/></g>
<g><path style="opacity:0.639" fill="#000000" d="M 110.5,13.5 C 115.214,13.1734 119.88,13.5067 124.5,14.5C 124.192,15.3081 123.692,15.9747 123,16.5C 122.333,23.5 122.333,30.5 123,37.5C 124.592,43.7807 126.926,44.1141 130,38.5C 130.667,31.1667 130.667,23.8333 130,16.5C 129.308,15.9747 128.808,15.3081 128.5,14.5C 131.768,13.513 135.102,13.1796 138.5,13.5C 137.967,22.8603 137.134,32.1937 136,41.5C 133.647,45.8405 129.98,47.5072 125,46.5C 118.991,47.4988 114.991,45.1655 113,39.5C 112.667,31.8333 112.333,24.1667 112,16.5C 110.961,15.7562 110.461,14.7562 110.5,13.5 Z"/></g>
<g><path style="opacity:0.69" fill="#000000" d="M 148.5,13.5 C 153.214,13.1734 157.88,13.5067 162.5,14.5C 160.564,17.208 160.064,20.208 161,23.5C 162.793,20.7047 164.96,18.2047 167.5,16C 167.043,15.586 166.709,15.086 166.5,14.5C 170.167,13.1667 173.833,13.1667 177.5,14.5C 174.043,18.4584 170.377,22.2917 166.5,26C 167.579,26.956 168.745,27.7894 170,28.5C 172.184,34.3695 175.018,39.8695 178.5,45C 174.179,45.499 169.846,45.6657 165.5,45.5C 164.298,41.422 162.798,37.422 161,33.5C 160.01,37.444 160.51,41.1106 162.5,44.5C 157.88,45.4933 153.214,45.8266 148.5,45.5C 151.167,34.8333 151.167,24.1667 148.5,13.5 Z"/></g>
</svg>
