<?xml version="1.0" encoding="UTF-8"?>
<!DOCTYPE svg PUBLIC "-//W3C//DTD SVG 1.1//EN" "http://www.w3.org/Graphics/SVG/1.1/DTD/svg11.dtd">
<svg xmlns="http://www.w3.org/2000/svg" version="1.1" width="230px" height="60px" style="shape-rendering:geometricPrecision; text-rendering:geometricPrecision; image-rendering:optimizeQuality; fill-rule:evenodd; clip-rule:evenodd" xmlns:xlink="http://www.w3.org/1999/xlink">
<g><path style="opacity:1" fill="#121621" d="M -0.5,-0.5 C 76.1667,-0.5 152.833,-0.5 229.5,-0.5C 229.5,19.5 229.5,39.5 229.5,59.5C 152.833,59.5 76.1667,59.5 -0.5,59.5C -0.5,39.5 -0.5,19.5 -0.5,-0.5 Z"/></g>
<g><path style="opacity:1" fill="#fcfcfc" d="M 28.5,5.5 C 36.0154,8.8426 43.182,12.8426 50,17.5C 50.6667,25.5 50.6667,33.5 50,41.5C 43.4131,45.8784 36.5797,49.8784 29.5,53.5C 25.4141,51.04 21.2475,48.7066 17,46.5C 16.1683,38.1467 16.3349,29.8134 17.5,21.5C 21.2779,19.0553 25.2779,17.0553 29.5,15.5C 33.7221,17.0553 37.7221,19.0553 41.5,21.5C 42.8333,26.8333 42.8333,32.1667 41.5,37.5C 37.5,39.8333 33.5,42.1667 29.5,44.5C 28.086,43.376 26.586,42.376 25,41.5C 24.3333,36.5 24.3333,31.5 25,26.5C 27.7065,24.1145 30.5398,23.9478 33.5,26C 28.6816,29.2153 27.3483,33.7153 29.5,39.5C 32.5802,38.2115 35.4136,36.5448 38,34.5C 38.6667,31.1667 38.6667,27.8333 38,24.5C 35.4136,22.4552 32.5802,20.7885 29.5,19.5C 26.4198,20.7885 23.5864,22.4552 21,24.5C 20.1691,31.1915 20.3358,37.8582 21.5,44.5C 24.2029,45.8515 26.8696,47.1848 29.5,48.5C 35.2031,45.898 40.7031,42.898 46,39.5C 46.8309,32.8085 46.6642,26.1418 45.5,19.5C 40.2353,16.6194 35.0687,13.6194 30,10.5C 24.3834,13.2825 18.8834,16.2825 13.5,19.5C 12.8333,27.5 12.1667,35.5 11.5,43.5C 10.5224,43.0233 9.68909,42.3567 9,41.5C 8.33333,33.5 8.33333,25.5 9,17.5C 15.672,13.6368 22.172,9.63682 28.5,5.5 Z"/></g>
<g><path style="opacity:1" fill="#7d7f85" d="M 84.5,14.5 C 80.6286,14.185 76.9619,14.5184 73.5,15.5C 72.9569,15.44 72.6236,15.1067 72.5,14.5C 76.6493,13.1905 80.6493,13.1905 84.5,14.5 Z"/></g>
<g><path style="opacity:1" fill="#81848a" d="M 99.5,15.5 C 97.3926,14.5318 95.0593,14.1984 92.5,14.5C 92.7373,15.791 92.404,16.791 91.5,17.5C 91.5,16.1667 91.5,14.8333 91.5,13.5C 94.5719,13.1826 97.5719,13.5159 100.5,14.5C 100.376,15.1067 100.043,15.44 99.5,15.5 Z"/></g>
<g><path style="opacity:1" fill="#85868c" d="M 136.5,15.5 C 134.5,14.1667 132.5,14.1667 130.5,15.5C 129.957,15.44 129.624,15.1067 129.5,14.5C 132.167,13.1667 134.833,13.1667 137.5,14.5C 137.376,15.1067 137.043,15.44 136.5,15.5 Z"/></g>
<g><path style="opacity:1" fill="#7d7f85" d="M 160.5,14.5 C 156.629,14.185 152.962,14.5184 149.5,15.5C 148.957,15.44 148.624,15.1067 148.5,14.5C 152.649,13.1905 156.649,13.1905 160.5,14.5 Z"/></g>
<g><path style="opacity:1" fill="#81848a" d="M 175.5,15.5 C 173.393,14.5318 171.059,14.1984 168.5,14.5C 168.737,15.791 168.404,16.791 167.5,17.5C 167.5,16.1667 167.5,14.8333 167.5,13.5C 170.572,13.1826 173.572,13.5159 176.5,14.5C 176.376,15.1067 176.043,15.44 175.5,15.5 Z"/></g>
<g><path style="opacity:1" fill="#edeeef" d="M 73.5,15.5 C 76.9619,14.5184 80.6286,14.185 84.5,14.5C 83.4113,18.0779 83.2446,21.7446 84,25.5C 86.0001,22.3343 88.5001,19.6676 91.5,17.5C 92.404,16.791 92.7373,15.791 92.5,14.5C 95.0593,14.1984 97.3926,14.5318 99.5,15.5C 95.5691,18.7641 91.9025,22.4308 88.5,26.5C 90.1932,27.2283 91.6932,28.2283 93,29.5C 95.2187,34.6666 97.7187,39.6666 100.5,44.5C 97.2317,45.487 93.8984,45.8204 90.5,45.5C 89.5666,42.0733 88.3999,38.74 87,35.5C 86.3848,33.8839 85.3848,32.5505 84,31.5C 83.5012,35.4862 83.3345,39.4862 83.5,43.5C 80.1667,44.8333 76.8333,44.8333 73.5,43.5C 74.8333,34.1667 74.8333,24.8333 73.5,15.5 Z"/></g>
<g><path style="opacity:1" fill="#ebebec" d="M 122.5,15.5 C 121.344,23.3225 121.177,31.3225 122,39.5C 124.526,43.3863 127.192,43.3863 130,39.5C 130.5,31.5069 130.666,23.5069 130.5,15.5C 132.5,14.1667 134.5,14.1667 136.5,15.5C 135.671,23.6566 135.171,31.9899 135,40.5C 131.364,46.1768 126.197,48.0101 119.5,46C 116.423,44.3383 114.423,41.8383 113.5,38.5C 113.815,30.5803 113.482,22.747 112.5,15C 116.027,14.1925 119.36,14.3592 122.5,15.5 Z"/></g>
<g><path style="opacity:1" fill="#edeeef" d="M 149.5,15.5 C 152.962,14.5184 156.629,14.185 160.5,14.5C 159.411,18.0779 159.245,21.7446 160,25.5C 162,22.3343 164.5,19.6676 167.5,17.5C 168.404,16.791 168.737,15.791 168.5,14.5C 171.059,14.1984 173.393,14.5318 175.5,15.5C 171.569,18.7641 167.902,22.4308 164.5,26.5C 166.193,27.2283 167.693,28.2283 169,29.5C 171.219,34.6666 173.719,39.6666 176.5,44.5C 173.232,45.487 169.898,45.8204 166.5,45.5C 165.567,42.0733 164.4,38.74 163,35.5C 162.385,33.8839 161.385,32.5505 160,31.5C 159.501,35.4862 159.334,39.4862 159.5,43.5C 156.167,44.8333 152.833,44.8333 149.5,43.5C 150.833,34.1667 150.833,24.8333 149.5,15.5 Z"/></g>
<g><path style="opacity:1" fill="#8c8e93" d="M 122.5,15.5 C 119.36,14.3592 116.027,14.1925 112.5,15C 113.482,22.747 113.815,30.5803 113.5,38.5C 112.744,30.3112 112.078,21.9778 111.5,13.5C 115.555,13.1758 119.555,13.5091 123.5,14.5C 123.376,15.1067 123.043,15.44 122.5,15.5 Z"/></g>
<g><path style="opacity:1" fill="#878a8f" d="M 73.5,43.5 C 76.8333,44.8333 80.1667,44.8333 83.5,43.5C 84.0431,43.56 84.3764,43.8933 84.5,44.5C 80.5,45.8333 76.5,45.8333 72.5,44.5C 72.6236,43.8933 72.9569,43.56 73.5,43.5 Z"/></g>
<g><path style="opacity:1" fill="#878a8f" d="M 149.5,43.5 C 152.833,44.8333 156.167,44.8333 159.5,43.5C 160.043,43.56 160.376,43.8933 160.5,44.5C 156.5,45.8333 152.5,45.8333 148.5,44.5C 148.624,43.8933 148.957,43.56 149.5,43.5 Z"/></g>
</svg>
